<svg width="867" height="455" viewBox="0 0 867 455" fill="none" xmlns="http://www.w3.org/2000/svg">
<g clip-path="url(#clip0)">
<path d="M938 173.777V480.033C937.993 485.327 935.829 490.401 931.982 494.144C928.136 497.887 922.921 499.993 917.481 500H9.5189C4.07917 499.993 -1.13568 497.887 -4.98215 494.144C-8.82863 490.401 -10.9928 485.326 -11 480.033V446.838C-7.46078 432.686 6.60776 420.369 21.9456 416.888C42.529 412.22 63.8557 418.747 83.9639 425.111C104.06 431.476 125.502 437.815 145.995 432.774C205.474 418.185 212.272 324.416 271.481 308.879C306.158 299.781 340.246 322.93 368.292 344.769C396.339 366.596 430.311 389.832 465.039 380.91C490.47 374.37 507.833 352.369 525.069 333.039C542.306 313.708 564.927 294.453 591.128 296.686C618.559 299.02 638.514 324.066 665.188 330.705C700.263 339.416 734.94 313.895 755.651 285.006C776.35 256.116 790.11 221.873 816.964 198.274C849.038 170.083 895.923 163.033 938 173.777Z" fill="white"/>
</g>
<defs>
<clipPath id="clip0">
<rect width="866.36" height="454.167" fill="white"/>
</clipPath>
</defs>
</svg>
